<?xml version="1.0" encoding="UTF-8" standalone="no"?>
<!DOCTYPE svg PUBLIC "-//W3C//DTD SVG 1.1//EN" "http://www.w3.org/Graphics/SVG/1.1/DTD/svg11.dtd">
<svg width="100%" height="100%" viewBox="0 0 214 341" version="1.1" xmlns="http://www.w3.org/2000/svg" xmlns:xlink="http://www.w3.org/1999/xlink" xml:space="preserve" xmlns:serif="http://www.serif.com/" style="fill-rule:evenodd;clip-rule:evenodd;stroke-linejoin:round;stroke-miterlimit:2;">
    <g transform="matrix(1,0,0,1,0,-0.230011)">
        <g>
            <path d="M107.215,0.23L106.727,0.23C47.875,0.23 0,48.09 0,106.918C0,145.48 17.562,196.371 52.195,258.184C77.875,304.008 103.914,339.105 104.176,339.453C104.898,340.43 106.043,341 107.254,341L107.355,341C108.605,340.965 109.758,340.324 110.449,339.286C110.707,338.894 136.559,299.855 162.062,252.105C196.488,187.652 213.941,138.805 213.941,106.918C213.941,48.09 166.062,0.23 107.215,0.23ZM156.477,109.527C156.477,136.824 134.27,159.035 106.969,159.035C79.672,159.035 57.461,136.824 57.461,109.527C57.461,82.227 79.672,60.019 106.969,60.019C134.27,60.019 156.477,82.227 156.477,109.527Z" style="fill:rgb(1,22,39);fill-rule:nonzero;"/>
        </g>
    </g>
</svg>
