<?xml version="1.0" encoding="UTF-8" standalone="no"?>
<!DOCTYPE svg PUBLIC "-//W3C//DTD SVG 1.1//EN" "http://www.w3.org/Graphics/SVG/1.1/DTD/svg11.dtd">
<svg width="100%" height="100%" viewBox="0 0 2134 2134" version="1.1" xmlns="http://www.w3.org/2000/svg" xmlns:xlink="http://www.w3.org/1999/xlink" xml:space="preserve" xmlns:serif="http://www.serif.com/" style="fill-rule:evenodd;clip-rule:evenodd;stroke-linejoin:round;stroke-miterlimit:2;">
    <g transform="matrix(4.16667,0,0,4.16667,0,0)">
        <path d="M453.344,92.921C419.49,51.998 373.56,22.55 322.716,8.82C324.844,15.505 326,22.619 326,30C326,37.156 324.916,44.063 322.911,50.57C410.603,79.116 472,161.905 472,256C472,375.103 375.103,472 256,472C136.897,472 40,375.103 40,256C40,218.893 49.305,183.228 66.787,151.64L37.537,122.39C13.085,162.203 0,208.089 0,256C0,324.38 26.629,388.667 74.98,437.02C123.333,485.371 187.62,512 256,512C324.38,512 388.667,485.371 437.02,437.02C485.371,388.667 512,324.38 512,256C512,196.562 491.169,138.646 453.344,92.921ZM240.857,269.142C244.477,272.761 249.477,275 255,275C266.046,275 275,266.046 275,255C275,249.477 272.762,244.477 269.143,240.858L91.643,63.358L63.357,91.642L240.857,269.142ZM226,30C226,13.431 239.432,0 256,0C272.568,0 286,13.431 286,30C286,46.569 272.568,60 256,60C239.432,60 226,46.569 226,30Z" style="fill:rgb(84,13,110);fill-rule:nonzero;"/>
    </g>
</svg>
